<svg viewBox="0 0 12 12" width="60px" height="60px" xmlns="http://www.w3.org/2000/svg"><path fill-rule="evenodd" d="M 1,0 10,0 10,1 11,1 11,11 0,11 0,1 1,1z M 6,4 6,5 5,5 5,4z M 3,5 4,5 4,6 3,6z M 7,5 8,5 8,6 7,6z" fill="#F5498B"/><path fill-rule="evenodd" d="M 2,1 3,1 3,2 2,2z" fill="#ffffff"/><path fill-rule="evenodd" d="M 4,1 7,1 7,2 6,2 6,3 5,3 5,2 4,2z" fill="#ffffff"/><path fill-rule="evenodd" d="M 8,1 9,1 9,2 8,2z" fill="#ffffff"/><path fill-rule="evenodd" d="M 1,2 2,2 2,4 1,4z" fill="#ffffff"/><path fill-rule="evenodd" d="M 9,2 10,2 10,4 9,4z" fill="#ffffff"/><path fill-rule="evenodd" d="M 3,3 4,3 4,4 3,4z" fill="#ffffff"/><path fill-rule="evenodd" d="M 7,3 8,3 8,4 7,4z" fill="#ffffff"/><path fill-rule="evenodd" d="M 1,6 2,6 2,7 1,7z" fill="#ffffff"/><path fill-rule="evenodd" d="M 5,6 6,6 6,7 5,7z" fill="#ffffff"/><path fill-rule="evenodd" d="M 9,6 10,6 10,7 9,7z" fill="#ffffff"/><path fill-rule="evenodd" d="M 3,7 4,7 4,8 3,8z" fill="#ffffff"/><path fill-rule="evenodd" d="M 7,7 8,7 8,8 7,8z" fill="#ffffff"/><path fill-rule="evenodd" d="M 1,8 3,8 3,9 2,9 2,10 1,10z" fill="#ffffff"/><path fill-rule="evenodd" d="M 8,8 10,8 10,10 9,10 9,9 8,9z" fill="#ffffff"/><path fill-rule="evenodd" d="M 3,9 5,9 5,10 3,10z" fill="#ffffff"/><path fill-rule="evenodd" d="M 6,9 8,9 8,10 6,10z" fill="#ffffff"/></svg>